<?xml version="1.0" encoding="utf-8"?>
<svg id="svg8" version="1.1" viewBox="0 0 53.393833 66.269928" height="66.269928mm" width="53.393833mm" xmlns="http://www.w3.org/2000/svg">
  <g transform="translate(-63.024381,-121.75218)" id="layer1">
    <g style="stroke-width:1.65178" transform="matrix(0.60540715,0,0,0.60540715,45.937795,74.192181)" id="g940">
      <path id="path847" style="stroke: none; stroke-width: 26.6262; stroke-linecap: round; stroke-linejoin: round;" d="m 353.40234,296.91602 c -9.1115,-0.0503 -18.1111,1.46019 -25.33984,3.6875 -12.85108,3.95965 -23.75786,12.68269 -28.28711,25.33203 -4.52925,12.64933 -1.64803,26.3436 5.75,37.61328 3.23616,4.92975 7.33023,9.48033 12.14649,13.48633 l -30.16602,-0.92578 c -4.07485,-0.3159 -8.18963,-0.48047 -12.33789,-0.48047 -7.25168,0 -14.37505,0.4645 -21.35156,1.35547 l -23.375,-31.19532 -32.09571,11.78516 6.90039,33.46484 c -54.98074,25.67684 -93.2848,80.77105 -98.17382,144.82032 -6.99881,91.68869 78.61645,174.77539 169.09961,174.77539 90.48316,0 163.83398,-74.54459 163.83398,-166.5 0,-61.0954 -32.82882,-115.38158 -81.39648,-144.94336 l 1.42187,-3.71289 c 9.90401,2.17563 19.83714,3.05764 27.29492,0.75976 12.85112,-3.95965 21.37505,-16.4366 25.9043,-29.08594 4.52925,-12.64933 4.65978,-26.9764 -2.73828,-38.24609 -7.39803,-11.26968 -21.67467,-23.32512 -36.4043,-28.64258 -6.44421,-2.32639 -13.59882,-3.30857 -20.68555,-3.34765 z m -4.31054,10.48632 c 7.96186,-0.1021 16.24279,0.67234 22.06836,2.77539 11.65113,4.20611 21.64448,15.46179 26.8789,23.43555 5.23442,7.97377 7.99301,22.62676 5.41797,29.81836 -2.57504,7.1916 -11.55185,18.34291 -20.64453,21.14453 -4.48256,1.38116 -10.91083,-0.0918 -17.67188,-2.43945 l 1.98829,-5.19141 a 40.559293,16.800449 24.484546 0 0 23.9082,-4.94336 40.559293,16.800449 24.484546 0 0 -29.94922,-32.09961 40.559293,16.800449 24.484546 0 0 -43.87305,-1.51953 40.559293,16.800449 24.484546 0 0 12.04493,21.34766 l -2.04493,4.22656 c -3.32313,-2.87165 -6.10451,-6.00942 -8.23437,-9.25391 -5.23442,-7.97376 -11.50668,-16.85332 -8.93164,-24.04492 2.57504,-7.1916 9.7999,-17.97377 18.89258,-20.77539 4.54634,-1.40081 12.18853,-2.37837 20.15039,-2.48047 z" transform="scale(0.26458333)"/>
      <path id="path880" style="color:#000000;font-style:normal;font-variant:normal;font-weight:normal;font-stretch:normal;font-size:medium;line-height:normal;font-family:sans-serif;font-variant-ligatures:normal;font-variant-position:normal;font-variant-caps:normal;font-variant-numeric:normal;font-variant-alternates:normal;font-variant-east-asian:normal;font-feature-settings:normal;font-variation-settings:normal;text-indent:0;text-align:start;text-decoration:none;text-decoration-line:none;text-decoration-style:solid;text-decoration-color:#000000;letter-spacing:normal;word-spacing:normal;text-transform:none;writing-mode:lr-tb;direction:ltr;text-orientation:mixed;dominant-baseline:auto;baseline-shift:baseline;text-anchor:start;white-space:normal;shape-padding:0;shape-margin:0;inline-size:0;clip-rule:nonzero;display:inline;overflow:visible;visibility:visible;opacity:1;isolation:auto;mix-blend-mode:normal;color-interpolation:sRGB;color-interpolation-filters:linearRGB;solid-color:#000000;solid-opacity:1;vector-effect:none;fill:#ffffff;fill-opacity:1;fill-rule:nonzero;stroke:none;stroke-width:12.2674;stroke-linecap:round;stroke-linejoin:round;stroke-miterlimit:4;stroke-dasharray:none;stroke-dashoffset:0;stroke-opacity:1;color-rendering:auto;image-rendering:auto;shape-rendering:auto;text-rendering:auto;enable-background:accumulate;stop-color:#000000;stop-opacity:1" d="m 278.23047,402.98438 c -63.73494,0 -118.00766,40.05496 -137.88477,95.86523 h 7.88868 c 1.5452,-4.08637 3.30862,-8.06724 5.23437,-11.95703 l 11.80273,3.99609 -8.09179,-11.0039 c 23.66987,-41.44385 68.9654,-69.47461 121.05078,-69.47461 14.79043,0 28.58897,2.04096 41.25586,5.88086 l 0.31836,23.92968 17.75781,-16.875 c 34.88799,16.91817 58.67665,49.32771 67.32031,90.62696 h 7.5625 C 399.4035,448.14552 349.23364,402.98436 278.23047,402.98438 Z m 129.57422,175.72265 c -1.05641,5.47031 -2.40564,10.76194 -4.02149,15.87305 l -19.0332,-4.12305 14.11914,17.22852 c -20.00438,45.73523 -64.01596,73.5664 -120.63867,73.5664 -13.56388,0 -26.3974,-1.64996 -38.34766,-4.79492 l -4.73633,-22.94922 -10.44921,17.96094 C 185.79494,656.0276 158.45745,623.22812 149.17188,579.7168 h -7.57422 c 13.24483,65.57371 65.81311,108.96093 136.63281,108.96093 71.72741,0 124.91835,-43.14342 137.13672,-109.9707 z" transform="scale(0.26458333)"/>
    </g>
  </g>
</svg>